<svg id="Layer_1" data-name="Layer 1" xmlns="http://www.w3.org/2000/svg" viewBox="0 0 83.84 83.84"><defs><style>.cls-1{fill:#fff;}</style></defs><title>noun-chat-6395950</title><path class="cls-1" d="M48,18.08A42,42,0,0,0,6.08,60,41.51,41.51,0,0,0,16.75,87.94L7.06,96.7a3,3,0,0,0,2,5.22H48A41.92,41.92,0,0,0,48,18.08Zm-17.56,48A6.08,6.08,0,1,1,36.52,60a6.08,6.08,0,0,1-6.08,6.08h0Zm16.92,0A6.08,6.08,0,1,1,53.44,60h0A6.08,6.08,0,0,1,47.36,66.08Zm16.92,0A6.08,6.08,0,1,1,70.36,60,6.08,6.08,0,0,1,64.28,66.08Z" transform="translate(-6.08 -18.08)"/></svg>