<svg id="Layer_1" data-name="Layer 1" xmlns="http://www.w3.org/2000/svg" viewBox="0 0 90 63"><defs><style>.cls-1{fill:#fff;}</style></defs><title>noun-youtube-5288426</title><path class="cls-1" d="M18.12,32.17A13.72,13.72,0,0,0,5.54,45.36C5.26,51.11,5,57.73,5,62.3s0.27,11.34.55,17.14A13.69,13.69,0,0,0,17.9,92.59C25.51,93.29,36.51,94,50,94s24.43-.7,32-1.4A13.74,13.74,0,0,0,94.42,79.38C94.71,73.27,95,66.29,95,62.3s-0.28-10.82-.57-16.88a13.76,13.76,0,0,0-12.6-13.26C74.34,31.58,63.54,31,50,31S25.6,31.58,18.12,32.17ZM41,48.94L64.2,62.3,41,75.66V48.94Z" transform="translate(-5 -31)"/></svg>