<svg id="Layer_1" data-name="Layer 1" xmlns="http://www.w3.org/2000/svg" viewBox="0 0 24.93 24.93"><defs><style>.cls-1{fill:#fff;}</style></defs><title>noun-camera-4325388</title><path class="cls-1" d="M23.05,7.43H8.13a5,5,0,0,0-5,5V27.36a5,5,0,0,0,5,5H23.05a5,5,0,0,0,5-5V12.43A5,5,0,0,0,23.05,7.43Zm3,19.93a3,3,0,0,1-3,3H8.13a3,3,0,0,1-3-3V12.43a3,3,0,0,1,3-3H23.05a3,3,0,0,1,3,3V27.36ZM15.6,14.79a5.11,5.11,0,1,0,5.1,5.12h0A5.11,5.11,0,0,0,15.6,14.79Zm0,8.21a3.11,3.11,0,1,1,3.1-3.12s0,0,0,0h0A3.1,3.1,0,0,1,15.6,23v0Zm8.57-10.9a1,1,0,0,1-1,1h-1a1,1,0,0,1,0-2h1A1,1,0,0,1,24.17,12.1Z" transform="translate(-3.13 -7.43)"/></svg>